# xmcd
#
# Track frame offsets: 
#        150
#        18310
#        34658
#        54330
#        70621
#        85229
#        100352
#        114040
#        130048
#        145087
#        161949
#
# Disc length: 2343 seconds
#
# Revision: 0
# Processed by: cddbd v1.5.2PL0 Copyright (c) Steve Scherf et al.
# Submitted via: ExactAudioCopy v0.95b4
#
DISCID=8509250b
DTITLE=Keaton Simons - Can You Hear Me
DYEAR=2008
DGENRE=Pop
TTITLE0=Without Your Skin
TTITLE1=Nobody Knows
TTITLE2=To Me
TTITLE3=Good Things Get Better
TTITLE4=Misfits
TTITLE5=Currently
TTITLE6=Burch Mog
TTITLE7=Joseph
TTITLE8=Mama Song
TTITLE9=Unstoppable
TTITLE10=Can You Hear Me
EXTD=
EXTT0=
EXTT1=
EXTT2=
EXTT3=
EXTT4=
EXTT5=
EXTT6=
EXTT7=
EXTT8=
EXTT9=
EXTT10=
PLAYORDER=
